<?xml version="1.0" standalone="no"?>
<!DOCTYPE svg PUBLIC "-//W3C//DTD SVG 20010904//EN"
 "http://www.w3.org/TR/2001/REC-SVG-20010904/DTD/svg10.dtd">
<svg version="1.0" xmlns="http://www.w3.org/2000/svg"
 width="973.000000pt" height="973.000000pt" viewBox="0 0 973.000000 973.000000"
 preserveAspectRatio="xMidYMid meet">
<metadata>
Created by potrace 1.14, written by Peter Selinger 2001-2017
</metadata>
<g transform="translate(0.000000,973.000000) scale(0.100000,-0.100000)"
fill="#000000" stroke="none">
<path d="M2974 7858 c-21 -4 -57 -10 -79 -13 -69 -11 -268 -82 -362 -128 -86
-44 -231 -136 -303 -194 -40 -33 -201 -192 -247 -244 -63 -73 -165 -230 -208
-321 -24 -51 -71 -176 -105 -278 -64 -197 -70 -214 -235 -725 -59 -181 -135
-418 -170 -525 -168 -515 -265 -816 -266 -825 0 -5 -5 -17 -10 -26 -27 -51
-71 -270 -75 -374 -7 -168 -7 -168 101 -78 110 92 118 98 180 148 28 21 52 42
55 45 3 3 30 25 60 50 30 25 60 49 66 55 6 5 71 60 145 120 107 88 428 354
524 433 11 9 43 36 71 59 48 40 52 46 62 110 13 79 22 110 149 503 217 674
240 734 357 910 64 95 164 203 242 260 100 72 256 132 414 156 25 4 961 8
2080 8 l2035 1 37 110 c20 61 73 225 118 365 45 140 92 288 105 328 13 39 21
73 17 73 -29 6 -4728 2 -4758 -3z"/>
<path d="M3325 5946 c-43 -132 -109 -334 -147 -449 -37 -115 -68 -214 -68
-220 0 -9 457 -12 1975 -12 l1975 0 60 48 c79 64 549 453 575 475 11 10 122
102 248 205 125 104 227 189 227 190 0 1 -1073 2 -2384 2 l-2384 0 -77 -239z"/>
<path d="M8784 5652 c-17 -15 -76 -63 -129 -107 -84 -68 -304 -250 -605 -499
-501 -415 -477 -393 -485 -439 -4 -23 -9 -55 -12 -72 -3 -16 -11 -48 -18 -70
-11 -32 -33 -105 -60 -195 -1 -3 -4 -12 -8 -20 -3 -8 -44 -136 -92 -285 -169
-529 -202 -615 -300 -767 -68 -104 -212 -268 -237 -268 -4 0 -13 -6 -20 -13
-64 -64 -267 -143 -422 -164 -23 -3 -957 -6 -2076 -7 l-2035 -1 -42 -125 c-41
-125 -166 -511 -168 -520 -2 -7 -66 -211 -71 -224 -3 -8 630 -11 2373 -10
2611 1 2423 -3 2618 60 168 54 408 188 532 296 198 173 358 377 447 570 43 91
35 70 427 1283 61 187 114 351 119 365 5 14 55 167 110 340 56 173 115 355
131 405 53 160 83 392 62 467 l-8 27 -31 -27z"/>
<path d="M2617 4414 c-34 -28 -157 -129 -273 -225 -116 -96 -230 -190 -254
-209 -24 -19 -48 -40 -54 -45 -6 -6 -113 -95 -238 -198 -126 -104 -228 -189
-228 -190 0 -1 1072 -2 2383 -2 l2382 0 71 215 c118 355 224 685 224 695 0 7
-676 10 -1976 10 l-1976 0 -61 -51z"/>
</g>
</svg>
