<svg xmlns="http://www.w3.org/2000/svg" width="80.653" height="64.017" viewBox="0 0 80.653 64.017">
	<path d="M7.9,47.063A9.522,9.522,0,0,1,3.96,46.3a6.521,6.521,0,0,1-2.684-2.184A7.27,7.27,0,0,1,.032,40.565,12.7,12.7,0,0,1,.7,35.6L8.32,12.068A15.919,15.919,0,0,1,10.97,7.074,19.817,19.817,0,0,1,14.9,3.23a17.813,17.813,0,0,1,4.486-2.4A13.015,13.015,0,0,1,23.711,0H73.719L70.165,11.064H24.643a8.865,8.865,0,0,0-6.192,2.125,13.656,13.656,0,0,0-3.533,5.793l-2.7,8.384c-.949,2.844-1.071,4.91-.37,6.309.739,1.483,2.478,2.231,5.171,2.231H62.091L58.454,47.063Z" transform="translate(0.01)" fill="#292b2c"/>
	<path d="M20.45,88.9l3.465-10.783H68.425a8.7,8.7,0,0,0,6.07-2.083,13.352,13.352,0,0,0,3.457-5.671l2.642-8.2c.928-2.785,1.046-4.81.361-6.183-.727-1.453-2.436-2.193-5.074-2.193H31.829L35.375,42.91H84.8a9.357,9.357,0,0,1,3.839.743,6.38,6.38,0,0,1,2.617,2.13,7.115,7.115,0,0,1,1.214,3.461,12.466,12.466,0,0,1-.647,4.852L84.366,77.1a15.515,15.515,0,0,1-2.592,4.881,19.47,19.47,0,0,1-3.839,3.755,17.328,17.328,0,0,1-4.381,2.344,12.59,12.59,0,0,1-4.217.815H20.45Z" transform="translate(-11.856 -24.885)" fill="#336397"/>
</svg>
